<svg xmlns="http://www.w3.org/2000/svg" viewBox="0 0 400 400" width="400" height="400" fill="none">
<path d="M110 40 L290 40 L290 360 L265 340 L240 360 L215 340 L190 360 L165 340 L140 360 L110 340 Z" fill="#F4EFE6" stroke="#1F2A44" stroke-width="7" stroke-linejoin="round" stroke-linecap="round"/><path d="M140 100 L200 100 M240 100 L260 100" stroke="#1F2A44" stroke-width="8" stroke-linecap="round" opacity="0.5"/><path d="M140 140 L200 140 M240 140 L260 140" stroke="#1F2A44" stroke-width="8" stroke-linecap="round" opacity="0.5"/><path d="M140 180 L200 180 M240 180 L260 180" stroke="#1F2A44" stroke-width="8" stroke-linecap="round" opacity="0.5"/><path d="M140 220 L200 220 M240 220 L260 220" stroke="#1F2A44" stroke-width="8" stroke-linecap="round" opacity="0.5"/><path d="M140 270 L260 270" stroke="#1F2A44" stroke-width="5" stroke-dasharray="10 10"/><path d="M140 305 L190 305 M230 305 L260 305" stroke="#D9713F" stroke-width="10" stroke-linecap="round"/>
</svg>
